/* XPM */
static char *_1ae1cc30c68424bc0b98bd3ee0e823aeL8qZmY1JiIE7UTW[] = {
/* columns rows colors chars-per-pixel */
"64 64 253 2 ",
"   c #030300",
".  c #0B0401",
"X  c #0B0A03",
"o  c #0A0B06",
"O  c #120101",
"+  c #1A0B03",
"@  c #160A04",
"#  c #13130C",
"$  c #1B140C",
"%  c #1B1508",
"&  c #1D1B15",
"*  c #1A1715",
"=  c #150F10",
"-  c #290907",
";  c #27180A",
":  c #35170C",
">  c #271C15",
",  c #391916",
"<  c #390400",
"1  c #1A2A14",
"2  c #25241B",
"3  c #2B231B",
"4  c #2C2A1D",
"5  c #272518",
"6  c #33251B",
"7  c #33291D",
"8  c #392818",
"9  c #2C301E",
"0  c #372A16",
"q  c #2C2D22",
"w  c #2A2A26",
"e  c #332D23",
"r  c #3B2D23",
"t  c #332E29",
"y  c #372B26",
"u  c #2D3223",
"i  c #2D3429",
"p  c #343325",
"a  c #393326",
"s  c #353927",
"d  c #353629",
"f  c #393529",
"g  c #36392A",
"h  c #3C3B2C",
"j  c #3A3A27",
"k  c #3C3632",
"l  c #3E3C32",
"z  c #3C3B39",
"x  c #3E1F25",
"c  c #441818",
"v  c #551B1E",
"b  c #48110C",
"n  c #472516",
"m  c #4E2C18",
"M  c #541E24",
"N  c #4C1E22",
"B  c #621C24",
"V  c #452D27",
"C  c #582829",
"Z  c #423325",
"A  c #42352C",
"S  c #413C2D",
"D  c #4B3B2D",
"F  c #4A3428",
"G  c #543528",
"H  c #423631",
"J  c #433C32",
"K  c #4B3D33",
"L  c #473C38",
"P  c #563B34",
"I  c #67272B",
"U  c #732829",
"Y  c #772934",
"T  c #653734",
"R  c #773539",
"E  c #683330",
"W  c #66221F",
"Q  c #3C402C",
"!  c #334E2F",
"~  c #3D4132",
"^  c #42412E",
"/  c #4B402E",
"(  c #52422E",
")  c #434133",
"_  c #4C4135",
"`  c #45433A",
"'  c #4C433B",
"]  c #4D4A3C",
"[  c #4B4935",
"{  c #524335",
"}  c #53453A",
"|  c #554A3D",
" . c #5A4A3C",
".. c #5C4536",
"X. c #67483A",
"o. c #664C3E",
"O. c #7A3846",
"+. c #4D4541",
"@. c #4B4A44",
"#. c #544B43",
"$. c #5B4C42",
"%. c #554945",
"&. c #5D5245",
"*. c #5C534B",
"=. c #585549",
"-. c #5D5651",
";. c #544F4D",
":. c #684A42",
">. c #784B46",
",. c #645545",
"<. c #63554C",
"1. c #655A4D",
"2. c #6B5C4D",
"3. c #695748",
"4. c #79584A",
"5. c #635651",
"6. c #655C54",
"7. c #6B5D53",
"8. c #695C58",
"9. c #735A56",
"0. c #7E4452",
"q. c #6C6254",
"w. c #6C635A",
"e. c #696659",
"r. c #736454",
"t. c #73655A",
"y. c #736A5D",
"u. c #7B6B5C",
"i. c #786657",
"p. c #746550",
"a. c #756C63",
"s. c #7B6D63",
"d. c #766A66",
"f. c #7C7163",
"g. c #7D756B",
"h. c #76726D",
"j. c #87333A",
"k. c #90303C",
"l. c #84463C",
"z. c #873842",
"x. c #973C45",
"c. c #A53F4A",
"v. c #864947",
"b. c #97464A",
"n. c #895748",
"m. c #984A54",
"M. c #885656",
"N. c #9B5656",
"B. c #92504F",
"V. c #A6444D",
"C. c #A94A54",
"Z. c #B64C55",
"A. c #B7525A",
"S. c #AA5259",
"D. c #866658",
"F. c #9A6B56",
"G. c #8D6B55",
"H. c #A57257",
"J. c #9C5964",
"K. c #8A5F69",
"L. c #B95962",
"P. c #A65864",
"I. c #836A64",
"U. c #996469",
"Y. c #837363",
"T. c #82756C",
"R. c #857A6D",
"E. c #8B7C6C",
"W. c #8A7668",
"Q. c #97796A",
"!. c #8B7C72",
"~. c #837A72",
"^. c #947C71",
"/. c #956571",
"(. c #A9656B",
"). c #BB6369",
"_. c #A87968",
"`. c #A86C75",
"'. c #BA737C",
"]. c #AF6F78",
"[. c #C3535D",
"{. c #C04E56",
"}. c #C55A65",
"|. c #C7616C",
" X c #CE6A76",
".X c #D76772",
"XX c #D77079",
"oX c #92816C",
"OX c #8D8274",
"+X c #868477",
"@X c #948474",
"#X c #9B8B7D",
"$X c #988677",
"%X c #968976",
"&X c #A68978",
"*X c #B68A77",
"=X c #A3927D",
"-X c #BA886F",
";X c #C5947A",
":X c #B67983",
">X c #AF7482",
",X c #937D80",
"<X c #CD7B85",
"1X c #988A86",
"2X c #9F9283",
"3X c #95999A",
"4X c #A28E83",
"5X c #A98B8A",
"6X c #A39484",
"7X c #A89888",
"8X c #B89888",
"9X c #A99B96",
"0X c #B3928D",
"qX c #AEA497",
"wX c #B7A998",
"eX c #B7AC98",
"rX c #B9A9A5",
"tX c #CA9A86",
"yX c #D5919D",
"uX c #CB9291",
"iX c #D6A48D",
"pX c #CDA796",
"aX c #DBAB96",
"sX c #D3AE99",
"dX c #E4A997",
"fX c #E7B59D",
"gX c #E4A88E",
"hX c #D79CA6",
"jX c #C8ABA8",
"kX c #C7B8A9",
"lX c #D4BBAD",
"zX c #D4AFB3",
"xX c #E2A7AB",
"cX c #EABBA5",
"vX c #EBB2B4",
"bX c #E09DA6",
"nX c #D5C5B5",
"mX c #F6C5AF",
"MX c #E8BCC4",
"NX c #F9BAC5",
"BX c #C8BBC2",
"VX c #DDD5D5",
"CX c #D4CCC9",
"ZX c #E9C8CC",
"AX c #E8D7D8",
"SX c #F3D7DC",
"DX c #F1CECA",
"FX c #EAE0DA",
"GX c #E6DFE2",
"HX c #F6DAE2",
"JX c #EAE5E3",
"KX c #F7E8E9",
"LX c #FAF3F3",
/* pixels */
"p p p p p p a a a a a a a a a a a a a a a a a a p a p u d d u s p p 9 p p u f p p u u u u u e e a e e e e e e e e e e e e e e e ",
"^ ^ S h h h S S ) ) ) S S S h S S J J h h h Q h ) ) h h ) ~ l h j ~ ~ g h h j l h h g g g j f f h f f f f f f f f f f f f f f f ",
"S S h h h h h h J h S h h h h h h S h h h h Q h j S S S S h h h h j ~ g h h a a h h g s g d f f f f f f f f a f a f f f f f f f ",
"h h h h h h h h h h S h h h h h h h h h Q h h h h S D F F V F F D Z S h s p f S f h g s g d f f f f f f f f a f a f f f f a a f ",
"h h h h h h h h S S S J S S h h h h Q Q Q Q Q ^ S A F G T R R R I C V f j g h f A A h j g g j f f f f h j f f f f f f f f f f f ",
"h h h h h h h h h h h h h h h h h Q h h h h S S A F P X.v.N.N.(.B.B.T F S a a f A A a f f d j j f f f f f f f f f f f a a a f f ",
"S S h h h h h S S h h S S J S S S ^ ~ h h J J F F C :.>.4.>.T D.>.>.X.X.P r a h f f f f f f h h j f f j j f f j f d f f f f f f ",
"h h h h h S S S h h h h h h S S h ) S h h J A V , , 9.^.0X5X@XkXpXD.4.4.P F A a d d a a f f g g g f f f f f f j d d f f f f f a ",
"h h h h h S S S S S S h h h h h h l l h J J 2 X $ ] 9XqXkXnXnXkXwXeXkX6X .a e a f a a f f j h g d f f f f f d d d f f f f f f f ",
"h h h h h h h S S S S h h h h h J h h l l d X & ;.=.g.qXCXFXkXeXeX7X7XeXOXw.5 p p p d j j h j s d f f f d d f f f f f f f f f f ",
"h h h h h h h h h S S S ^ h h S S S ` h ~ 2 * @.2 w.1X9XnXkXkXeXnXDXnXlXu.1.4 2 u u g h f h h a f d d d d d f f h h h f f f f f ",
"h h h h h h h h h h S ) ^ ^ ^ S S ) ) l ~ * 2 $ %.!.3.#X$X$X$XQ.&X*X8XjXeXqX) u u i d d f f S f f d d d d d j j h h h f f f f f ",
"h h h h h h h h h h ^ ^ ^ ^ S h ) j h ~ ~ # # -.L + : >.>.v.v.N.b.B.n.4.$X6X=.9 u u p d a f h f f d d d d d f j h h j f f a f f ",
"h h h h h h h h h h h S ^ ^ S h j Q h ) h # 2 > O n T >.R U N.j.U j.B.B.M.G  ._ q q u d f f f a d d d d d d f f f f f f f f f f ",
"h h h h h h h h h h h h h S S h ^ Q Q j ) $ + O V T T E b l.dXN.W v U U v.E n K u q u d d f a a d d d d d d d d d f f f f f f f ",
"h h h h h h h h h h h h h h S h S h Q g h 5 O c C v v (.N.l.dXtX_.v.l.b.C.N.I , a q q u d a a a d d d d d a a a a d f f f f f f ",
"h h h h h h h h h h h h S S S S J S ~ g h ; - T I R B.'.N.b.).L.L.A.V.A.L.A.S.R V 5 p u q d h p d d g d d d d d d d f f f f f f ",
"h h h h h h h h h h h h S S h S S J ~ ~ ~ > - C R j.j.j.j.x.).}.L.V.}.C.Z.Z.x.R , 5 d q d p s h g g j g g d d d d g j f f f f f ",
"j j h h h h h h h h h h h h h h f ) h l J 6 - v I Y x.k.b.x.XXA.C.}.A.Z.V.V.b.B.P e w q f h a s j j j j j g d d d g j j f f f f ",
"d d j j h h h h h h h h h h h h f Q h h J a - c E b.Y x.V.V.|.A.|.C.V.A.V.b.C.B.P 2 q d a f j a g g g g g g d d d d f f f f f f ",
"d d g g j h h h h h h h h h h h S S S h h f + : C Y j.k.C.C.[.A.}.L.Z.S.C.b.b.J.K 2 q d p p f h f f f f j j d a a d d d f f f d ",
"d d g g g j h h h h h h h h h S A A S l h h + - N E R x.x.V..X[.}.L.).S.x.S.m.:XV 4 e q d h f j f f f f j j g d d d d d f f f d ",
"j g g g g j h h h h j h h h j h h S h l h l > - N M z.j.C.Z.[.Z..XL.C.b.L.x.(.0X> 2 d p d h d a f f f f f f f j f f d d f f f d ",
"j g g g g j j h h h j j j j j j h ^ g h h J y - , C I m.C.c.XX{.}.A.L.S.C.m.uX5X$.4 q d d d f f a d d d a d f j h f d d d f d d ",
"d g g g j j j j d g g h h h j j h s l h h J y - , v Y j.C.Z.}.Z..XZ.C.L.b.'.xX`.kXd 4 g p a h d d f f f d d f f h j j f f f d d ",
"d d g g g g g g g g g g h h j j g h h h l J k ; : M B j.c.V.}.[.Z.|.|.C.m.xXxXuXCX` q q p p p g f f f f f f f f f f f f f f d d ",
"d d d g g g g g j j g g h h h h J j h l d J y + - M M z.x.c.}..XXX}.}.S.yXxXuX5XAX` 2 4 d d a j d g j j f f f f f f f f f f f f ",
"d d d g g g g g j j j j h h h h f l h h J y ; - c b B B b.C.}.}.XX XS.].NX:X/.jXAX@.3 e u p g a d d f f f f f f f f f f f f f f ",
"d d d g g g g g g g j h h h h h h l h g J K , M v.I < b R x.<X|. Xm.'.vXhX`.zXAXAXw.7 p q p h f d d g g f f f f f f f f f f f f ",
"d d d d g g g g g g j h h h h g d p ~ ~ f I.N R (.(.m.R b B V.|.L.(.bXuX>XzXSXAXAX~.e 5 u d d f g g d g f f f f f f f f f f f d ",
"d d d d d g g g g g g g h h j j f l d d y I.:.J.(.m.m.N.m.j.k.V.<XvX'.:XMXHXHXHXAX~.#.e u p a p g d d d f f f f f f f f f f f f ",
"d d d d d g g g g g g g g g j f J f ] 6.H P yX`.'.yX'.(.U Y Y m.'.(.hXMXKXGXAXKXCXa.a.| p q ) J d d d d d f f f f f f f f f f d ",
"d d d d d d g s s h h p j h S y T.rXqX1X9.x /.0.Y P.P.m.m.m.J.J.'.xXZXAXJXGXGXKX9X%.5.s.#.a 5 4 d f f e d p d d a f a S f d p d ",
"a d s s d d g s s u j h h a > 3.I.I.zXzX^.jXI.T O.:XyX<XJ.`.uXyXvXvXZXAXJXJXJXVX*.+.} g.R.e.#.) p 2 q l d p p d p h f a a f g g ",
"a a s d d d d s g h f f 4 4 6 ^.vXc D rXrXrXDXU.R I B.M.U.xXvXhXxXMXSXAXGXJXLXh.e %.7.7.R.e.#.` ) p d u 2 q q p p a e a H a a d ",
"a a p d d a d d d d 2 l | ,...Q.xXM.A > $.!.ZXZXK.I O.`.DXDXxXhXMXZXHXGXJXJXCX' ' y $._ | } S f a ` =.) l q 2 4 f a d a a r f d ",
"a a u p d d d d d 2 @ h &.,.G Q.0XG S J > > #XHXzXv.Y z.:X:X:XyXzXHXJXJXJXKX] 7 6 K  .,. .} { $.$.*.<.#.y.q.} A e 2 g u e f g d ",
"a p u p a a a d @.~ # ] 1.o.E *XQ.8 } _ 7.A + 1XKXZX:XJ.J.U.>XhXZXAXVXJXVXh.J K r.Y.3. .,.,.,.,.$.$.$.$.7.R.r.&.) 2 u i d d d g ",
"p p p s p a f f t l e -.&.F n.tX^. .1.<.5.%.$ @ 1XAXSXjX9XZXHXHXAXVXJXCXw.L T.#XE.2.2. .,. .3.$.$.&.| | &.t.D 6 q.` 4 u d p p h ",
"p p u s e p f f z & e a 0 : F.iXQ.6 1.T.t.*.%.@ = 1XVXLXGXCXBXGXKXJX1X%.*.<.T.#Xi.Y.Y.,.,. .$. .| | }  .q.r.{ <._ #.q q p p a a ",
"p p s s e 7 S $ d 2 2 A n n F.aXX.; A &.w.' } J * . z 3XCXGXVXVXqX*.H *.H 6 2.$Xr.6X=X=X6X$X!.R.Y.f.2. .}  .t.y.#.S ' f q q a a ",
"u g 9 s j S #.` ` ` 4 Y...4.H.;Xm ; F  .8 8 A *.' w w w & > ;.L t z 8.g.7.7.u.2.3.eXkXeXeXeXeXkXqX7X7X#XW.u.1.6.A a.$.A q q p a ",
"p u u s p | a =.) S | E.G.F.H.-X*X*X&XQ.D.i.r.*.f ] 8.-.+.%.%.J w.w.6.*.<.7.| Z / oX#XoX@X#X7XqX7XeXkXjXrXkXR._ J y.K a a p 4 a ",
"u u p p S f e ] 4 % P Q.G.G.H.-XgXcXcXtXpX8X2.1.) l L <.H #.J . ` *.f ' %.K &.| r.r.,.Y.2.q.=.=.q.R.^.$X4X9Xs.a e <.$.r y  .4 9 ",
"u u p 4 A A h h [ ; G 8X-XH.-X;XiXdXcXcXcXpX( 1.[ *.#.y e J a $ =.> 3 *.8.t.6.=.q.OX7.Y.#Xf.) ` J ] #.$.6.t.<.A a ,.F P T zX/ 1 ",
"u u q y A 7.) 5 / 0 T -XG.F.-XiXfXfXfXfXcXaX4.F [ a L f l #.a > 2 $ f L 5.+X=.` ] #X2XY.#Xq.] h J h H y f ] { L 7 7 K :.U.xXy.1 ",
"9 s 4 e K a.e.p S 0 _._.n.n._.;XfXfXmXaXgXdX8XP Z #.*.6.#.w.#.. J ) w.~.#.=.e.) e @X#X^.i.{ ] =.` H H ' l J 8.$Xf e { P R U.+X1 ",
"u u q 3 A T.R.g.r.0 n.*Xn.;XaXtXiXcXmXmXdXtXcXi.{ t.5.5.w.d.+.a -.6.~.+X=.@.` l > ~.4XW.} S y.y.=.<.%.d.#.h 7.4XS } } X.I >.+X! ",
"i i k $ } E.$X2Xq.. ..:.X.F.*X*X8XpXiXtXdXaX8X9. .K 3.2.K ' =.q . 2 -.d.6.@.#.#.$ $ d.7Xd.,.<.a.d.w.#.y.g.S $.#X_ } D u.G , y.9 ",
"i i 2 & 1.2.r.$XR.S 6 : c m b b : n - n _.lXlX$XD { t.$X7.<.f & k -.5.w.8.' J ' J t > y 5.*.{ e f J w.q.R.!.Y.i. .{ i.#Xt.A 6 D ",
"d &   p w.e r w.~.y.+ : X.m < - - O - o.X.D.4X!.A } K 7.7.g.t & T.@X1X1.| q.1.=.| ] #.6.w.J &.#.6.1.A | | r y.R.D { $X6X6Xf._ ,.",
"d X   2 q > a J 4 . . 3.pXF.H.l.: + 4.8X8X3.T.!.H J _ K _ J t d ' D 1.2.R.r.R.9Xa.J w.#.' =.w.<.f.f.f.6X| $.OXq. .{ u.$X$XOXZ { ",
"2 #     # & > w o   + ..tXiXiXtX:.y 9.s.7.<.~.*.t ` J *.g.g.#.l A _ ,.R.R.2XOX7Xf.S } *.w.6.!.%X&.@XY.#Xq.E.u.K t.7.E.r.Y.$X( ( ",
"2   X   o & = =     O ..*XaXgXaX3.t a y K a L ' t L J ' A #.+.k *.<.R.7.S 1.f.OXT.} 1.&.OXqX6X7X%XqX%Xr.Y.f.2Xr.{ s.r.u.3.Y.r.8 ",
"X X X o o & * w   # + : _.tXgXtXA e r f.@XT.%.H z H ' a J y d k J +.+.+.' J ' <.<.{ 7.3.7.@X6X4X8X=XqX@XE.u.K 7.&.1.A 2.,.D u.F ",
"  X   i # * = k w $ % O n G.F.4.{ 3 _ 2Xt.t.w.> k J ' J a J t k k t z +.' ' ' w.W.t.W.qX4X^.W.o.W.7X=X@XqXr.a 7.S _ K  .u.Y.u.o.",
"      @.w   * H k f 6 : : X.E G ; Z @X@X@X@X&.H L ] ' S A J 3 L +.z t t J ' K T.6X4X#X7X7X5X^.u.G $X=XE.7Xf.K K r A Y.Y.i.@Xi.r.",
"    * @.o o H L & e 1.i.W.D.:.W.,.2.E.p.$Xr.} &.H $.K { <.7.y l f ' *.A A K  .R.7X#X#X4XqX=XE.2.Y.Y.6Xr.&.E.$.6 r y.@X7.2.R.Y.W.",
"    & t   . > A ' % Z 3. .{ 3.i.R.r...4.oX2.r.7.6 $.$.E.#Xf.' 6.OX%X$Xi.r.Y.#X3.oX=X7X7XR.#X,.{ E.R.2.,.8 &.D 3 _ R.r.r Z 8 2.o.",
"  X ;.z   . . 6 5 4 S { $.| A 1.<. . .2.( r.s.} $.$. .$X^.#X_ <.6X=X&XE.6X7X$X@XY.oXi.E.2.<.a.~.u.%Xr. .R.Y.; ; K t.$.,.D i.$.0 ",
"  d g.i   o @ $ 4 J 7 > K A J #.w.q. .2.i.2.7.d.a s.u.3.E.#Xy.r.%X=X7X=X6X6X6X=XoX%X=XoXq.A 6.s.T.w.OX7XqXy.+ K !.Y.t.} > | R.1.",
"@ =.+X#     t = . 2 7 e a 3 3 ` d ' 7 _ K A 8.5.5.$.u.,...E.,.E.p.oX=X=XE.Y.6XY.( 3.q.7XR.a *.6.*._ S | #.a + 7.$X!.<.; S r._ K ",
"% q.e.    o k t X X d J A 6   3 t t a a A %.-.+.*.#.i.3.o.E.,.r.,.1.#XY.} !.@XP Z Z i.u.r.7.a e y =.-.f.g.> 7 ; u.,.r $.OXy._ J ",
"+ h u     w z & # & $ e <.> . . w 2 k f ' k L @.%.L D 3.i.W.,.D S 2.!.y.K u.9.W.u.=XE.Y. .$.} > $ e e.d.<.@ 3 @  . .q.t.7.K w._ "
};
