/* XPM */
static char *_2a36fc286314148bdb12bd74593f134PvX0qc2kQ5mcbHUl[] = {
/* columns rows colors chars-per-pixel */
"64 94 255 2 ",
"   c #030302",
".  c #0B0401",
"X  c #060904",
"o  c #090A05",
"O  c #040709",
"+  c #060A09",
"@  c #0B0C0A",
"#  c #0A0609",
"$  c #140501",
"%  c #130D04",
"&  c #180A07",
"*  c #0F110C",
"=  c #0B1106",
"-  c #12120D",
";  c #1C150C",
":  c #18150A",
">  c #0A0C12",
",  c #120E14",
"<  c #0D1215",
"1  c #141412",
"2  c #1B1A14",
"3  c #1C1C1A",
"4  c #171716",
"5  c #230B02",
"6  c #270A03",
"7  c #360B01",
"8  c #291508",
"9  c #371807",
"0  c #231B14",
"q  c #271B16",
"w  c #351E14",
"e  c #252215",
"r  c #2C251B",
"t  c #28261B",
"y  c #33241B",
"u  c #342A1D",
"i  c #3D2A1D",
"p  c #382516",
"a  c #3D2B15",
"s  c #141A36",
"d  c #131A2C",
"f  c #19212B",
"g  c #182338",
"h  c #242522",
"j  c #2C2B23",
"k  c #2C2D2B",
"l  c #272825",
"z  c #332C23",
"x  c #3B2C23",
"c  c #342A26",
"v  c #2B3129",
"b  c #3C3224",
"n  c #34332D",
"m  c #3B332A",
"M  c #393729",
"N  c #272C37",
"B  c #3B3A35",
"V  c #383735",
"C  c #2F3037",
"Z  c #24201D",
"A  c #461B07",
"S  c #551E04",
"D  c #4A2308",
"F  c #55260A",
"G  c #472717",
"H  c #562A16",
"J  c #48331E",
"K  c #58341B",
"L  c #5E300C",
"P  c #662C14",
"I  c #69361A",
"U  c #763A1C",
"Y  c #67290B",
"T  c #452E25",
"R  c #433324",
"E  c #4B3426",
"W  c #43342A",
"Q  c #443A2C",
"!  c #4B3D2E",
"~  c #493729",
"^  c #533324",
"/  c #583928",
"(  c #4B3D32",
")  c #463C35",
"_  c #553B33",
"`  c #683A26",
"'  c #783E28",
"]  c #663B2F",
"[  c #4C4334",
"{  c #43423C",
"}  c #4A4738",
"|  c #564738",
" . c #4F4A31",
".. c #6D442A",
"X. c #77442A",
"o. c #684737",
"O. c #754A36",
"+. c #67543C",
"@. c #77533B",
"#. c #69421B",
"$. c #182844",
"%. c #1E314C",
"&. c #262D46",
"*. c #2A3348",
"=. c #363B49",
"-. c #283352",
";. c #2E3855",
":. c #423F46",
">. c #3D4259",
",. c #3D4867",
"<. c #4A4845",
"1. c #574A46",
"2. c #585246",
"3. c #474A5B",
"4. c #595754",
"5. c #544D53",
"6. c #634B49",
"7. c #685547",
"8. c #775747",
"9. c #685A54",
"0. c #775C55",
"q. c #744E44",
"w. c #76664C",
"e. c #6B6257",
"r. c #796757",
"t. c #71684D",
"y. c #52566D",
"u. c #5A6475",
"i. c #776B64",
"p. c #7B7469",
"a. c #7B7875",
"s. c #6A6869",
"d. c #695F63",
"f. c #83431E",
"g. c #874829",
"h. c #864D34",
"j. c #8C553C",
"k. c #88563A",
"l. c #9A5A3C",
"z. c #955638",
"x. c #964C2A",
"c. c #A45B3C",
"v. c #A54E32",
"b. c #A9623C",
"n. c #8C5A42",
"m. c #855A48",
"M. c #935B43",
"N. c #975C45",
"B. c #935E51",
"V. c #A25D42",
"C. c #8A634B",
"Z. c #98654A",
"A. c #876857",
"S. c #9C6C53",
"D. c #966957",
"F. c #9A725A",
"G. c #887358",
"H. c #A66849",
"J. c #B26B49",
"K. c #A66A55",
"L. c #A9755A",
"P. c #B57858",
"I. c #B27150",
"U. c #876962",
"Y. c #86776B",
"T. c #977768",
"R. c #857B76",
"E. c #997D75",
"W. c #966E64",
"Q. c #A37563",
"!. c #A97C68",
"~. c #BB7C64",
"^. c #B47A65",
"/. c #A67E75",
"(. c #A65130",
"). c #B8825C",
"_. c #AD815C",
"`. c #9C816A",
"'. c #8B827A",
"]. c #978477",
"[. c #AA836B",
"{. c #BC846B",
"}. c #B88567",
"|. c #A98876",
" X c #B78975",
".X c #BC937D",
"XX c #B7917A",
"oX c #A8917C",
"OX c #C38B6C",
"+X c #C58768",
"@X c #C5926D",
"#X c #C68C73",
"$X c #C59373",
"%X c #CB9375",
"&X c #CB967A",
"*X c #C8997B",
"=X c #D4997A",
"-X c #C2825E",
";X c #586689",
":X c #6F7680",
">X c #8E8785",
",X c #958A85",
"<X c #9A918B",
"1X c #989494",
"2X c #A58C83",
"3X c #A79488",
"4X c #B79887",
"5X c #A69B96",
"6X c #B49790",
"7X c #AAA29B",
"8X c #B8A497",
"9X c #B2A18D",
"0X c #ACA7A6",
"qX c #B7ABA5",
"wX c #BAB3AD",
"eX c #B9B6B4",
"rX c #99A0AA",
"tX c #C59B86",
"yX c #D29D85",
"uX c #C29E91",
"iX c #C7A38B",
"pX c #D7A589",
"aX c #C9A797",
"sX c #D7AA94",
"dX c #CAB19D",
"fX c #D9B39B",
"gX c #E6B59B",
"hX c #E3AD95",
"jX c #C5AEA2",
"kX c #C8B5AA",
"lX c #D7B9A6",
"zX c #C2BEBC",
"xX c #C7BBB6",
"cX c #D5BEB5",
"vX c #E5BBA4",
"bX c #C4C1BE",
"nX c #CCC2BB",
"mX c #D5C5BA",
"MX c #EFC6B2",
"NX c #BEC2C5",
"BX c #CBC9C7",
"VX c #D5CBC6",
"CX c #D6D2CE",
"ZX c #D9D7D5",
"AX c #CFD0CF",
"SX c #E4DCD9",
"DX c #E3D1C6",
"FX c #DEE0DD",
"GX c #E6E2DD",
"HX c #F3EBDD",
"JX c #DBDDE1",
"KX c #E3DEE1",
"LX c #E8E6E6",
"PX c #F8F2EB",
"IX c #F7F8F4",
/* pixels */
"9 8 9 9 A A A A 9 7 6 6 9 D F F G y T ~ | 7.| ! b x x x x W _ 0.E.E.R.4.n 3 4 3 d g $.%.%.*.B ( [ | | 7.e.i.Y.R.'.>X1X5X5X7X6X6X",
"w w w w G G A A 7 6 6 6 8 9 A D p w u b [ 2.| ( R x x W W Q | 9.Y.Y.p.4.B h h h N $.%.%.*.=.{ | +.7.7.0.r.p.R.'.>X,X<X1X5X3X3X3X",
"p p i i T T G w 6 5 $ $ 6 8 9 9 q q q z ) | | ( W x x W ( ( [ 9.i.i.s.4.B k k C N &.-.-.*.:.1.7.8.8.w.r.r.r.Y.'.>X,X<X<X<X<X].'.",
"r u u x T W T i w 8 $ $ 5 8 8 8 0 4 ; r m ) | ( W b ~ ) [ } | 2.9.9.4.<.C C C C N &.-.-.=.<.7.0.C.A.G.G.G.U.Y.'.>X>X,X<X<X,XR.p.",
"r r u z z m m W x y 8 & & & 8 0 4 , @ 0 z m ( ( W W ( ( [ | [ [ [ } { n n n C C N &.-.-.=.5.0.A.D.F.Q.T.T.Y.Y.'.>X>X>X,X,X,XR.p.",
"r u u z z z x m W x y q ; & ; 4 1 > + 1 q z ) ( Q Q ( ! Q ! Q J b R z y z z j k N N &.*.=.5.0.W.!.!.[.[.E.T.'.'.>X>X>X>X,X<X,X].",
"J R R x z z z x x x x w q ; 1 4 4 > @ @ 2 j m [ [ ! ! ~ R E ~ / / / E T T i r e h l N N =.5.r.W.[. X X|.`.E.'.>X>X>X,X,X,X3X3X,X",
"/ / ! T x x i u i i G p w q 4 1 4 > > # - t M [ | Q ~ R J / o.@.m.m.m.q.o.^ a p 8 e l C :.6.U.W.!.!.|.|.T.Y.Y.R.>X,X,X,X,X].].'.",
"` @.q.] ^ T J G G G K / _ W Z 4 , , @ # @ e z M [ ( R J ^ o.m.W.!.Q.!.Q.Z.m.` H G 8 r z ) 6.0.U.W.W.W.r.9.2.4.4.s.a.R.R.p.i.e.e.",
"@.Z.S.B.m.q.q.O.O.O.@.m.0.| j 1 , > #   o 2 t z M Q x i / m.T.!. X X X X[.L.n.O./ J p T W 1.6.0.0.7.1.( Q n n n V <.5.9.4.1.} [ ",
"j.K.^.^.L.L.F.F.S.S.K.!.T.7.z @ @ # #     o 2 t u u i E q.D.!.|.XXXXXXXX X}.L.n.O.o./ E ! W 6.6.| ) m z j l l l k k n V n M m [ ",
"h.H.P.P.~.^.^.^.L.L.^.}.Q.q.c @ #     o @ @ : 2 2 q u ( 8.A.E.3X6XdXdXiX4X.X.X[.D.m.o.o._ ( ) ) m z j j j j j v k v v v v z m [ ",
"X.j.H.J.I.I.K.L.L.L.~.^.Q.8.x .   # O     X o - 0 ; y 9.5XkXVXSXHXPXHXGXDXmXcXaXT.A.0.6.( ) B V n j z z z z z j l h h j n m Q Q ",
"K X.z.l.c.V.H.H.K.P.{.{.[.A.W .   + + o - - o % - 2.5XZXPXPXPXPXLXGXZXGXGXSXCXmXkXkX3X2.} m j j j j z x R ~ x u u t t t M Q Q R ",
"K ..g.z.c.c.H.H.P.~.+X#X XA.( ; @ @   o -   @ c 7XSXIXPXLXPXIXPXLXLXLXLXJXZXZXZXBXBXVX5X) t j j e r x E _ _ E i r e t z Q ) R i ",
"..X.h.z.l.c.H.K.L.^.~.~.Q.8.W 0 @ @ @ @ X . 9.GXLXLXLXLXLXLXLXLXLXKXLXJXZXJXZXZXAXBXBXBX7X} e t i ~ o.o.q.8.o.! p q e b ( _ E G ",
"h.j.l.z.l.Z.S.Z.B.n.N.Z.m._ c 3 4 * * @ 1 a.LXLXLXLXLXLXLXLXGXGXLXLXFXZXZXZXAXBXAXAXBXBXBXeXs.m | m.Z.S.S.S.A.o.x q r u ! | ^ / ",
"N.N.l.l.z.j.k.O.` ` ' h.O.E Z 4 @ , 1   a.IXLXZXLXLXLXLXLXLXLXLXSXGXZXAXBXBXzXwXBXAXBXAXBXBXxX].A.Q.~.P.}.[.F.8.E q 0 i o.m.@.@.",
"Z.N.l.z.g.U H D S F ' j.q./ q 1 * @ # h ZXIXLXZXAXKXKXSXGXSXGXZXZXZXFXZXCXBXzXwXbXbXBXbXbXzXnXDX4X[.{.~.}.}.L.8.E q : b G.4X4XXX",
"N.N.l.g.U P F F H ` n.L.W.q.c @ @ #   '.IXCXBX0XBXZXCXZXSXSXGXZXZXCXZXZXVXbXxXwXeXzXeXeXwXqXxXkXmXXXL.^.L.L.Z.o.p 8 : ! |.lXMXvX",
"N.N.l.z.g.X.' ' O.n.K.~.!.A.W % # + 4 bXLXBXeXwXeXBXBXZXSXZXSXZXCXVXVXBXnXxXbXeXzXeX5XqXnXzXwXqXmX8XD.S.Z.l.X.G 9 5 % R `.lXMXMX",
"M.N.H.H.H.K.K.B.B.K.~.#X XD._ & @   B ZXZXeX0X1X0XzXBXCXCXVXVXBXBXVXVXcXcXnXnXwXbXCXzX<X5X0X5XqXnXmXT.n.j.g.P A 9 & $ p A.XXtXsX",
"h.M.H.I.~.~.^.K.K.K.^.~.!.D._ 8 # O >XFXeX0X1X>XwXzXBXBXBXBXBXVXnXmXkXjXjXkXqX5XqX0X5X5X0XxXVXVXZXHXiXC.n.X.I H 9 5 5 G +.m.D.XX",
"` @.N.H.K.L.K.n.n.n.B.L.Q.m._ 0 O < 0XAXzX0X5X7X0XwXzXnXVXZXVXVXkXjXuXuXaXaX8X8XxXwXxXxXVXZXBXCXCXSXjXD.M.h.X.` H 9 9 G o.o.C.iX",
"G / ..O.k.k.O.` ` ] O.q.8.8.| z o 4 bXCXxXkX8X3X3X8XkXxXVXDXkXkXlXaXaXaXsXiX8XkXkXxXVXCXBXCXbXbXzXnXlX8.k.j.h.h...H A H O.m.|.lX",
"8 9 G H H H H H H H H ^ _ 7.6.} 2 j mXmX8X3X|.T.`.4XaXlXlXaX8XaXiXtXyXyXpXtXtXdX8XjXnXVXVXCXeX0XeXxXjXo.X.h.j.j.X.` I X.S.[.aXMX",
"& 5 8 9 A A D H ` ^ G p T 6.e.e.[ 2.mXdX4X|.[.[.!.|.XX4X.X.XtXtXtX*XyXyXyXtXtXaX8X8XxXxXBXzXwX0X0XqXjX@.X.j.l.j.h.X.' j. XsXvXMX",
". $ & 8 9 A H ] O.o.^ p i 1.i.Y.r.Y.lXaX.X$X$X$X{.!.[.!.}.*X&X&X%X&X&X&X&X$X.XiXiX|.,XqXxX0X5X0X0XqXkXD.n.N.l.z.z.g.g.Z.tXvXMXvX",
"  . $ 5 9 G / ] o.] E w y } i.R.Y.].lXaXtX*X$XOXOXL.}.{.OX%XOX#X#X$X&X&X$X$X.XtX4X4X2X3XqXxXwX0X0XqXkXF.Z.N.l.z.h.g.' j. XfXlXaX",
"  . $ & 8 G ^ ] ] ^ i q 0 B d.R.Y.].lXaXiX*X&X$X}.}.{.@X@X$X&X%X=X=X=X=X&X$XOX.X.X4X3X8XqXwXqX7X0XwXdXA.M.l.z.g.g.g.U X.!.pXlX4X",
"      $ 5 9 G G G p 8 : - k 5.s.p.'.kXdXsXpXsXpX&X=X&X&X=XpXpX=X=X=X=X&X@X@X{.}.[.|.4X8XkXkXqX,X7XkX3XO.g.g.g.g.X.X.U U Z.tXfXtX",
"O     . $ 5 8 w w 5 % % - l <.s.p.Y.jXlXdXgXgXgXgXsXgXhXhXgXpXpXpX*X=X%XOX$XOX{.L.[.XX3X8X8XqX5X7XwX].K P I U X.U I L L k.[.sXuX",
"        . . & ; & % . o - 3 B e.p.,XkXdXvXvXsXMXgXhXvXvXsXsXsXfXfXsXpX=X$XOX#XOX@X_. X4XoXqX7X5X3X8X].G F P Y P P L F F X.L.4X4X",
"            . o . . o o @ 2 V 4.p.3X7.7.oXlXMXiXsXsXsXsXsXsXdX4XoX4XsXpX%X#XOX=X@X}.[.XX3X8XqXr.|.aXD.H F D F F F F D D #.Z.[.|.",
"                    o @ - 2 c 1.Y.Y.i ~ +.8.[. X*X*X$X*XXXD.+.i y i 8.S.K.#X&X$X$X*XXX4X4X2X`.F.yXgXhXk.F F A A A A D F I k.F.Q.",
"              X   @ 1 4 2 3 j } r.].r.R G 6 6 / F.}.Z.z.U A 5 & & 8 G ` M.~.{. X X*XXX4XaXuXF. XP.g.x.+XI H D 9 A A D F K ..k.C.",
"      O @ - 1 - 2 t j t 3 3 l ) 0.].].8 6 / ^ 7 X.}.J.g.S A 5 8 E 9 H X.h.H.{.~.&XpX.X.X.X.XP.H.x.x.f.J.j.A D D D D F H K ..O.O.",
"      4 k V V n V B B j t t j B 9.Y.8XG.O.!./.H h.pX%Xl.Y S 7 H tXm.F F U h.H.~.+X#X$X$X[.L.H.x.b.J.v.J.h.F 9 D D F H ` o.q.@.O.",
"    @ l { <.<.<.2.<.{ n l l j V 1.i.8XiXS.X.X.F ^.hX%XI.g.I I h.l.g.z.l.g.z.I.+X+X}.$X$X{.P.h.g.x.J.c.l.` 7 9 9 D H ` o.8.A.A.@.",
"    * l { <.5.4.4.4.<.n k k c V <.e.dXfX}.z.U F yXvX=XOXH.f.g.x.x.l.J.H.I.~.P.P.+X#XOX}.}.pXP.H.c.J.V.Z.7 6 7 9 L I O.8.r.Y.U.8.",
"    @ 4 h n <.2.4.4.<.V n n V B <.9.dXsX+Xf.Y k.vXsXtX$X_.H.g.x.b.b.H.I.}.%X=X~.OX+XP.}.}.pX{.H.H.P.^.@.$ & 5 9 H ..q.9.d.s.s.9.",
"    . o - 3 c B 2.2.<.{ { { { { <.9.iXpX).c.l.*XMXlXiX*X).).I.z.g.z.P.&X=X&X%X+X}.{.{.$X&X}.H.P.~.~.Q.o.5 ; 8 w K ] 6.4.3.3.5.<.",
"% % . o o % 0 j B { <.<.<.} } } 2.7.oX$XOX).{.gXMXvXpX$X).P.=X-XI.I.OX$X+X+XP.I.^.L.}.{.OX).%X%X=X#X4XT j 3 0 y _ 1.5.3.;.*.*.*.",
"; ; : % . o % - e z B ) { { ) ) ) [ F..X{.&XyXMXMXgXpX$X}.H.P.=X=X+X{.}.P.P.I.J.^.L.S.$X).).OX+XpXvXA.r C N k V 1.4.3.>.%.$.g s ",
"e q 0 ; : % . . - 2 e t j z z z u i 8.tX.XyX*XhXgXyXOX=X=XP.I.=XpX=XOX+XI.b.J.I.L.Z.L.pX}.H.=XpXtXW.q f N *.>.3.y.y.3.;.%.g s d ",
"y r r e 0 2 - % o - : : 2 0 e t u p 7.uXaXtX$X[.S.k.I g.N.K.+XOX%X=X%X+XI.J.I.I.Z.S.!.}.}.h.C.D.8.8 , &.;.,.u.y.y.3.*.&.$.g s d ",
"u u y u r t e 0 : 2 2 2 e t u z b i 8.uXaXtXsXtXO.` H ` n.#XpXOXOX=X&XOX+X+XI.l.Z.L.[..X!.T.G . . l *.,.y.;Xu.y.>.*.g g g g s s ",
"W W b x z u r t t u u M M Q [ [  .| q.aXuXuXsX.X8./ / @.Q.tXpXyX%X+X#X#X%X+XL.K.[.Q..X4X XT.q   + f 3.;X;X;X,.,.-.&.s s s g g s ",
"! ! Q R b b z u z M { }  . . . . .6.7.8X6X].4X|.w.a 8.A.A.T.|. X X{.+XOX}.P.S.L.[.[.tX[.tXT.&   O > N u.u.,.;.-.-.$.$.s s $.$.$.",
"! ! ( ! Q b u u m M } 2.|  . . . .| i ].6X].A.r.0.J / +.0.A.m.D.Q.L.L.I.).L.n.[.!. X[..X.XA.&   @   > =.3.;.-.-.-.-.$.$.$.s $.g ",
"! [ | |  .Q b b Q [ } } }  .} M M M % 2.8Xr.| ^ o.m.` F H ^ D / O.@.Z.L.S.L.L. X X4X[.4XiXr.$   + + > < N =.*.*.&.&.&.s $.g s g ",
"! | +.7.+.+. . .R Q Q } } { M v t 2 o 2 <X7.G ` ' ` P I F S A 9 D ..@.C.S.F.L.!.4X4XoXiX[.A.. . o o 1 < < f g &.=.&.N N g d f f ",
"_ +.7.w.w.w.t.+.[ b b { { n j l 4 * *   e.3X^ /. X#X^.K.h.h.k...9 K 8.C.F.S.n.Q.|.|.oX[.C.C.$   @   - * @ < < < f > u.rX:Xy.f f ",
"| +.w.w.G.G.r.t.| [ b z j t 3 4 4 * *   e 7X0.8.W.D.S.K.M.j.N.` D 9 O.D.D.Q.|.!.|.`.D.k.Z.O.$ . @   * * o 1 1 O O < k a.>XNXs.f ",
"| 7.w.r.r.r.r.t.7. .u 2 4 4 1 @ @ o @ o . Y.8X| _ ^ H S H ` ..K K J / / 8.!.4XT.|.[.O.k.S./ . o o     - - o o @     o   h k 3 3 ",
"| 7.w.r.t.t.t.t.e.b % - 2 - + + X X @ o   } nXY.0.o.^ A A / ..K 7.Y.T.] q.4X4X`.`.F.n.M.C.9 .     @ o @ - o o o   X X X     + * ",
"| 2.7.t.t.e.2.| m : % - @ @ @ o   o X o = t 7XmX2XW.q.o./ +.A.7.].3X6X0.0.E.8X3X`.k.h.M.o.5   O + O o @ @ @ o o                 ",
"| 2.7.2.M e : : 2 @ * - o o o o @ o X       v VXmX8XE./.E.Y.9X].qXqX3XA.r.7.G.oXn.g.h.n.^ $   + + O # + @ @ + o         O o + o ",
"2.M 0 : - - - 1 o o - * X o o o o @ X X o     a.xX7X2XE.E.3X6X2X8X8X|.8.q.A.8.C.j.g.z.k.G .   o + O O X + + + @       O + + + @ ",
"2 - : - - o @ 1 + @ @ o o o X o o @ o           a.5X'.i.0.Y.2X2X2X].8.8.8.C.8.O.g.z.l.O.8     o o O O O + + + + X     X + + + + ",
"2 1 - * @ o + O > @ + O o o X o o   o o o X     o B } Q ( _ 0.U.r.r.8.+.+.m.o.O.j.N.X.w .   . . o + X + + + + X + O O + + o o @ ",
"1 * @ X   o * @ @ + + X o o X o X X   o       X     o   % ; q p T ~  .+.o.o.q.o.o./ 8 .     o . o o o X + @ + X + O   X + o o @ ",
"O         o @ o o X @ + + + o o X + X + O O .         X     X   % $ 0 y y x x q & .   O +   O @ o o o o o + + X + O     o o o @ ",
"X X X o X o o X o X + o + @ @ o @   @ X O               X         .   . $ . .   + + + O O O > O o o o   o + @ o + X   O o o o o ",
"@ @ @ @ @ o o o o o o @ @ o o X X X X X O                               . . # O + O   O O O O + o X   O o @ @ @ o o   X o o o @ ",
"@ @ @ + @ o o o @ o o @ @ @ o o X X X X X             1 2                                 O + # o O     X o o o o X     o o X o ",
"@ @ o o o o o o + o # o o o o o X X o o o O       O     3 B V 3 - - @ X X o @ - - 2 3 - O   O O O     O X o o o o o     o o o o ",
"@ @ o o o o o o @ + + + @ @ + + o o o X X                 + 2 h B { <.{ { { B B h 4 O       O O O   O O o @ @ @ o o     o o o @ ",
"o o o o o o o o + + @ @ @ + + o + + X X           O                 o o X X                     O O O O o + + + o o     X o o o ",
"o o X X X X o o o + + + + + o # X X X O                   o + @ @ o o     o o o O                       O o + @ o @ X   X o o o ",
"o X X           o o o o + + + O   O O O O         O       @ @ @ - * @ @ @ @ o O                             O o X @ o X o o o o ",
"o o X                                 O O         O       o @ 4 2 1 - * * @ + o O                                 O X X o o o o ",
"X o o X X                         O o o #                   @ 2 1 - - - * o O                                       O + X o X o ",
"X X X X X       O   O     +   O O o o #                     @ 1 2 @ - 1 o o @                                       o + X   - k ",
"  X X X o X X                   O O o #         O           o * 2 2 4 - @ o O                                     # o O o   4 <.",
"    X X o o o o   o         +       o o o O     O           X @ 2 3 4 - * o                                         O O @ O * V ",
"      X X X o o o   + k k 3           O o O     o             X 1 - 4 1 o o o                           O           O @ @ #   o ",
"          X o o   O h B V <.+           O O # O o O   O       O * 1 4 - o                               O             + o + O   ",
"          O O O     3 V n V     O         O o o o X O X       O o 2 1 @ *                                                 + @ @ ",
"            O O +     - -     @ O         O O O + X X X       X o - 1 - o                                                 o o + ",
"                O             O + + O         O o O # o O         1 * - - O                                 O X               O ",
"                            O o + O           O O O # o #         - * - -                                     X                 ",
"                O O   O     O O O O             O O # O O O       * * * @ O                                                     ",
"                  O                               O # O O o       + * * @ O                                                     ",
"                                                    o O O # O     o @ @ @ O                                     o               ",
"                                                    O O O #         @ @ @ +                                     X               ",
"                                                      O o #         @ @ @ @                                     X o O           ",
"                                                      o o #   #     + @ @ @                                     X o o           ",
"                                                        O O   O     O @ @ +             O     #                     O           ",
"                                                        O O           @ @ @ O           #     # o O #               O           ",
"                                                          o O         o @ @ #       O   o O     o o o O                         ",
"                                                          O O O       O + @ o           O       O o o O                         ",
"                                                          O O #         + @ +                   O O o O       X                 ",
"                                                            O +         o @ @ O             O   O # o O                         "
};
